<svg width="32" height="32" viewBox="0 0 32 32" fill="none" xmlns="http://www.w3.org/2000/svg">
<circle cx="16" cy="16" r="16" fill="#1C55D4"/>
<path d="M6.7197 20H8.48337V10.1357H6.72653L4.14938 11.9404V13.6357L6.60348 11.9131H6.7197V20ZM11.3584 13.0684H13.0127C13.0127 12.043 13.6963 11.3389 14.7695 11.3389C15.8018 11.3389 16.417 12.0156 16.417 12.8975C16.417 13.6357 16.1162 14.1074 14.8721 15.3516L11.4541 18.7764V20H18.3037V18.5029H13.8467V18.3867L15.9658 16.3223C17.6611 14.6816 18.1602 13.875 18.1602 12.7266C18.1602 11.0859 16.8271 9.88965 14.8652 9.88965C12.8076 9.88965 11.3584 11.1953 11.3584 13.0684ZM24.877 20H26.5655V18.1201H27.8985V16.6299H26.5655V10.1357H24.0772C22.7373 12.1729 21.336 14.4219 20.0576 16.6504V18.1201H24.877V20ZM21.6914 16.5752C22.6553 14.9141 23.7969 13.1025 24.8086 11.5713H24.9043V16.6709H21.6914V16.5752Z" fill="#FDFDFD"/>
</svg>
