<svg width="32" height="32" viewBox="0 0 32 32" fill="none" xmlns="http://www.w3.org/2000/svg">
<circle cx="16" cy="16" r="16" fill="#1C55D4"/>
<path d="M7.81345 20H9.57712V10.1357H7.82028L5.24313 11.9404V13.6357L7.69723 11.9131H7.81345V20ZM16.1299 20.2461C18.2832 20.2461 19.7256 18.8311 19.7256 16.7598C19.7256 14.7773 18.3584 13.5127 16.6699 13.5127C15.665 13.5127 14.9404 13.8613 14.5029 14.4697H14.3867L14.6602 11.6191H19.1992V10.1357H13.2861L12.7461 15.8779H14.3457C14.6807 15.2422 15.3301 14.8525 16.1709 14.8525C17.2578 14.8525 18.0234 15.6318 18.0234 16.7939C18.0234 17.9834 17.2578 18.7764 16.123 18.7764C15.1182 18.7764 14.3594 18.1816 14.25 17.2656H12.6025C12.6777 19.002 14.0928 20.2461 16.1299 20.2461ZM24.0635 20H25.8272V10.1357H24.0703L21.4932 11.9404V13.6357L23.9473 11.9131H24.0635V20Z" fill="#FDFDFD"/>
</svg>
