<svg width="32" height="32" viewBox="0 0 32 32" fill="none" xmlns="http://www.w3.org/2000/svg">
<circle cx="16" cy="16" r="16" fill="#838383"/>
<path d="M7.08884 20H8.85251V10.1357H7.09567L4.51852 11.9404V13.6357L6.97262 11.9131H7.08884V20ZM15.4053 20.2461C17.5586 20.2461 19.001 18.8311 19.001 16.7598C19.001 14.7773 17.6338 13.5127 15.9453 13.5127C14.9404 13.5127 14.2158 13.8613 13.7783 14.4697H13.6621L13.9355 11.6191H18.4746V10.1357H12.5615L12.0215 15.8779H13.6211C13.9561 15.2422 14.6055 14.8525 15.4463 14.8525C16.5332 14.8525 17.2988 15.6318 17.2988 16.7939C17.2988 17.9834 16.5332 18.7764 15.3984 18.7764C14.3936 18.7764 13.6348 18.1816 13.5254 17.2656H11.8779C11.9531 19.002 13.3682 20.2461 15.4053 20.2461ZM21.4864 20H23.3321L27.5498 11.6396V10.1357H20.6866V11.6123H25.7725V11.7217L21.4864 20Z" fill="#FDFDFD"/>
</svg>
