<svg width="32" height="32" viewBox="0 0 32 32" fill="none" xmlns="http://www.w3.org/2000/svg">
<circle cx="16" cy="16" r="16" fill="#838383"/>
<path d="M7.78807 13.0684H9.44237C9.44237 12.043 10.126 11.3389 11.1992 11.3389C12.2314 11.3389 12.8467 12.0156 12.8467 12.8975C12.8467 13.6357 12.5459 14.1074 11.3017 15.3516L7.88377 18.7764V20H14.7334V18.5029H10.2764V18.3867L12.3955 16.3223C14.0908 14.6816 14.5898 13.875 14.5898 12.7266C14.5898 11.0859 13.2568 9.88965 11.2949 9.88965C9.23729 9.88965 7.78807 11.1953 7.78807 13.0684ZM20.4932 20.2461C22.8516 20.2461 24.2529 18.332 24.2529 15.0713C24.2529 11.7969 22.8311 9.88965 20.4932 9.88965C18.1485 9.88965 16.7266 11.7969 16.7266 15.0576C16.7266 18.332 18.1279 20.2461 20.4932 20.2461ZM20.4932 18.7832C19.2422 18.7832 18.5108 17.5049 18.5108 15.0576C18.5108 12.6309 19.2559 11.3594 20.4932 11.3594C21.7305 11.3594 22.4688 12.624 22.4688 15.0576C22.4688 17.5049 21.7442 18.7832 20.4932 18.7832Z" fill="#FDFDFD"/>
</svg>
