<svg width="32" height="32" viewBox="0 0 32 32" fill="none" xmlns="http://www.w3.org/2000/svg">
<circle cx="16" cy="16" r="16" fill="#1C55D4"/>
<path d="M16.4208 21.2393C18.5673 21.2393 20.0849 19.8037 20.0849 17.7734C20.0849 15.8799 18.7108 14.499 16.8378 14.499C15.6757 14.499 14.746 15.0391 14.2812 15.9688H14.165C14.1786 13.6377 15.0331 12.3662 16.496 12.3662C17.371 12.3662 18.0136 12.8105 18.1845 13.5693H19.9482C19.7021 11.9697 18.3554 10.8896 16.4618 10.8896C14.0146 10.8896 12.4765 12.8584 12.4765 16.1738C12.4765 19.5576 14.1376 21.2393 16.4208 21.2393ZM16.4071 19.7695C15.2929 19.7695 14.4589 18.915 14.4589 17.7871C14.4589 16.6797 15.2655 15.873 16.414 15.873C17.5624 15.873 18.3554 16.6797 18.3554 17.8213C18.3554 18.9219 17.5146 19.7695 16.4071 19.7695Z" fill="#FDFDFD"/>
</svg>
