<svg width="30" height="20" viewBox="0 0 30 20" fill="none" xmlns="http://www.w3.org/2000/svg">
<path d="M1.21622 0C0.54452 0 0 0.583956 0 1.30435C0 2.0247 0.54452 2.6087 1.21622 2.6087H28.7838C29.4555 2.6087 30 2.0247 30 1.30435C30 0.583956 29.4555 0 28.7838 0H1.21622ZM1.21622 8.69565C0.54452 8.69565 0 9.27961 0 10C0 10.7203 0.54452 11.3043 1.21622 11.3043H28.7838C29.4555 11.3043 30 10.7203 30 10C30 9.27961 29.4555 8.69565 28.7838 8.69565H1.21622ZM1.21622 17.3913C0.54452 17.3913 0 17.9753 0 18.6957C0 19.416 0.54452 20 1.21622 20H28.7838C29.4555 20 30 19.416 30 18.6957C30 17.9753 29.4555 17.3913 28.7838 17.3913H1.21622Z" fill="white"/>
</svg>
