<svg width="32" height="32" viewBox="0 0 32 32" fill="none" xmlns="http://www.w3.org/2000/svg">
<circle cx="16" cy="16" r="16" fill="#C3192D"/>
<path d="M3.73239 17.3135C3.73239 19.0977 5.00387 20.2461 6.89059 20.2461C8.87302 20.2461 10.0693 19.084 10.0693 17.0537V10.1357H8.30563V17.04C8.30563 18.0996 7.79294 18.6602 6.87009 18.6602C6.02927 18.6602 5.46872 18.127 5.45505 17.3135H3.73239ZM16.2598 20.2393C18.4062 20.2393 19.9238 18.8037 19.9238 16.7734C19.9238 14.8799 18.5498 13.499 16.6768 13.499C15.5146 13.499 14.585 14.0391 14.1201 14.9688H14.0039C14.0176 12.6377 14.8721 11.3662 16.335 11.3662C17.21 11.3662 17.8525 11.8105 18.0234 12.5693H19.7871C19.541 10.9697 18.1943 9.88965 16.3008 9.88965C13.8535 9.88965 12.3154 11.8584 12.3154 15.1738C12.3154 18.5576 13.9766 20.2393 16.2598 20.2393ZM16.2461 18.7695C15.1318 18.7695 14.2979 17.915 14.2979 16.7871C14.2979 15.6797 15.1045 14.873 16.2529 14.873C17.4014 14.873 18.1943 15.6797 18.1943 16.8213C18.1943 17.9219 17.3535 18.7695 16.2461 18.7695ZM24.9043 17.4365L26.4356 20.0137H28.3496L25.9092 16.2334L28.3223 12.5352H26.4561L24.9795 15.1055H24.8633L23.3799 12.5352H21.4112L23.8516 16.3018L21.4317 20.0137H23.2637L24.7881 17.4365H24.9043Z" fill="#FDFDFD"/>
</svg>
