<svg width="20" height="18" viewBox="0 0 20 18" fill="none" xmlns="http://www.w3.org/2000/svg">
<path fill-rule="evenodd" clip-rule="evenodd" d="M11.0677 0.286098C11.3924 0.473524 11.6619 0.7431 11.8494 1.06773L19.7138 14.6897C19.9012 15.0143 20 15.3825 20 15.7574C20 16.1323 19.9014 16.5005 19.714 16.8252C19.5266 17.1498 19.257 17.4194 18.9324 17.6068C18.6077 17.7942 18.2395 17.8929 17.8646 17.8929H2.13541C1.76055 17.8929 1.39228 17.7942 1.06764 17.6068C0.743 17.4194 0.473424 17.1498 0.286012 16.8251C0.0985996 16.5004 -4.31638e-05 16.1322 1.41688e-08 15.7573C4.33339e-05 15.3824 0.098771 15.0142 0.286258 14.6896L8.15063 1.06773C8.33806 0.7431 8.60764 0.473524 8.93227 0.286098C9.2569 0.0986718 9.62515 0 10 0C10.3749 0 10.7431 0.0986718 11.0677 0.286098ZM18.5444 16.935C18.751 16.8158 18.9221 16.6437 19.0402 16.4364C19.1607 16.2304 19.2242 15.9961 19.2241 15.7575C19.2241 15.5189 19.1606 15.2846 19.04 15.0787L11.1756 1.45671C11.0565 1.25033 10.8851 1.07896 10.6787 0.95981C10.4724 0.840663 10.2383 0.777942 9.99997 0.777953C9.76168 0.777964 9.52758 0.840707 9.32122 0.959873C9.11486 1.07904 8.94351 1.25043 8.82439 1.45682L0.960009 15.0787C0.840813 15.285 0.778039 15.5191 0.778 15.7574C0.77796 15.9957 0.840656 16.2298 0.959785 16.4362C1.07891 16.6425 1.25027 16.8139 1.45664 16.9331C1.66301 17.0522 1.89711 17.1149 2.1354 17.1149H17.8646C18.1032 17.1164 18.3378 17.0543 18.5444 16.935ZM10.2897 1.63352C10.3778 1.68437 10.451 1.75752 10.5018 1.84561L18.3662 15.4677C18.4172 15.5557 18.444 15.6557 18.444 15.7574C18.4441 15.8591 18.4173 15.9591 18.3665 16.0472C18.3156 16.1353 18.2425 16.2085 18.1544 16.2594C18.0663 16.3102 17.9663 16.337 17.8646 16.337H2.13539C2.03367 16.337 1.93373 16.3103 1.84563 16.2594C1.75752 16.2086 1.68436 16.1355 1.63349 16.0474C1.58263 15.9593 1.55585 15.8593 1.55586 15.7576C1.55587 15.6559 1.58266 15.556 1.63354 15.4679L9.49814 1.84583C9.54898 1.75772 9.62211 1.68454 9.71019 1.63365C9.79828 1.58276 9.8982 1.55596 9.99993 1.55594C10.1017 1.55592 10.2016 1.58267 10.2897 1.63352ZM9.60791 15.111C9.72396 15.1886 9.86041 15.2299 9.99999 15.2299C10.0927 15.2299 10.1844 15.2117 10.2701 15.1762C10.3557 15.1408 10.4335 15.0888 10.499 15.0232C10.5645 14.9577 10.6165 14.8799 10.652 14.7943C10.6875 14.7087 10.7057 14.6169 10.7057 14.5242C10.7057 14.3846 10.6643 14.2482 10.5868 14.1321C10.5092 14.0161 10.399 13.9256 10.2701 13.8722C10.1411 13.8188 9.9992 13.8048 9.8623 13.832C9.72541 13.8593 9.59966 13.9265 9.50096 14.0252C9.40226 14.1239 9.33504 14.2496 9.30781 14.3865C9.28058 14.5234 9.29456 14.6653 9.34797 14.7943C9.40139 14.9232 9.49185 15.0335 9.60791 15.111ZM10.6517 12.6681C10.6903 12.6315 10.7134 12.5814 10.7163 12.5283L11.0518 6.27764C11.0594 6.13477 11.0379 5.99184 10.9885 5.85756C10.9391 5.72329 10.8629 5.60048 10.7645 5.49664C10.6661 5.39279 10.5475 5.31009 10.4161 5.25357C10.2846 5.19705 10.1431 5.1679 9.99999 5.1679C9.85692 5.1679 9.71534 5.19705 9.58391 5.25357C9.45247 5.31009 9.33392 5.39279 9.23551 5.49664C9.13708 5.60048 9.06085 5.72329 9.01146 5.85756C8.96207 5.99184 8.94055 6.13477 8.94822 6.27764L9.28369 12.5283C9.28653 12.5814 9.30966 12.6315 9.34829 12.6681C9.38693 12.7047 9.43813 12.7251 9.49136 12.7251H10.5086C10.5619 12.7251 10.6131 12.7047 10.6517 12.6681Z" fill="#C05F01"/>
</svg>
