<svg width="25" height="23" viewBox="0 0 25 23" fill="none" xmlns="http://www.w3.org/2000/svg">
<path fill-rule="evenodd" clip-rule="evenodd" d="M13.8347 0.357622C14.2405 0.591905 14.5774 0.928875 14.8117 1.33466L24.6422 18.3621C24.8765 18.7679 24.9999 19.2282 25 19.6967C25 20.1653 24.8767 20.6256 24.6425 21.0314C24.4082 21.4373 24.0712 21.7742 23.6654 22.0085C23.2596 22.2428 22.7993 22.3661 22.3308 22.3661H2.66926C2.20068 22.3661 1.74035 22.2428 1.33455 22.0085C0.92875 21.7742 0.591779 21.4372 0.357514 21.0314C0.123249 20.6256 -5.39689e-05 20.1652 1.77204e-08 19.6966C5.41532e-05 19.2281 0.123464 18.7677 0.357822 18.362L10.1883 1.33466C10.4226 0.928875 10.7595 0.591905 11.1653 0.357622C11.5711 0.12334 12.0314 0 12.5 0C12.9686 0 13.4289 0.12334 13.8347 0.357622ZM23.1805 21.1688C23.4387 21.0197 23.6527 20.8046 23.8003 20.5455C23.9509 20.288 24.0302 19.9951 24.0302 19.6969C24.0301 19.3986 23.9507 19.1057 23.8 18.8483L13.9695 1.82088C13.8206 1.56291 13.6064 1.3487 13.3484 1.19976C13.0905 1.05083 12.7978 0.972428 12.5 0.972442C12.2021 0.972456 11.9095 1.05088 11.6515 1.19984C11.3936 1.3488 11.1794 1.56304 11.0305 1.82102L1.20001 18.8483C1.05102 19.1063 0.972549 19.3989 0.9725 19.6967C0.97245 19.9946 1.05082 20.2872 1.19973 20.5452C1.34864 20.8032 1.56284 21.0174 1.8208 21.1663C2.07876 21.3153 2.37138 21.3937 2.66925 21.3937H22.3308C22.6289 21.3954 22.9222 21.3178 23.1805 21.1688ZM12.8621 2.04186C12.9722 2.10542 13.0637 2.19686 13.1273 2.30697L22.9578 19.3346C23.0214 19.4446 23.055 19.5696 23.055 19.6967C23.0551 19.8239 23.0216 19.9488 22.9581 20.059C22.8945 20.1691 22.8031 20.2606 22.693 20.3242C22.5828 20.3878 22.4579 20.4212 22.3307 20.4212H2.66922C2.54206 20.4213 2.41714 20.3878 2.30701 20.3243C2.19688 20.2607 2.10543 20.1693 2.04185 20.0592C1.97827 19.949 1.9448 19.8241 1.94481 19.697C1.94482 19.5698 1.97831 19.4449 2.04191 19.3348L11.8727 2.30725C11.9362 2.19711 12.0276 2.10563 12.1377 2.04202C12.2478 1.97842 12.3727 1.94491 12.4999 1.94489C12.627 1.94486 12.752 1.9783 12.8621 2.04186ZM12.0099 18.8887C12.1549 18.9857 12.3255 19.0374 12.5 19.0374C12.6158 19.0374 12.7305 19.0146 12.8376 18.9702C12.9446 18.9259 13.0418 18.8609 13.1237 18.779C13.2057 18.6971 13.2706 18.5999 13.315 18.4928C13.3593 18.3858 13.3821 18.2711 13.3821 18.1552C13.3821 17.9808 13.3304 17.8102 13.2335 17.6651C13.1365 17.5201 12.9987 17.407 12.8376 17.3402C12.6764 17.2734 12.499 17.256 12.3279 17.29C12.1567 17.3241 11.9996 17.4081 11.8762 17.5314C11.7528 17.6548 11.6688 17.812 11.6347 17.9831C11.6007 18.1543 11.6182 18.3316 11.6849 18.4928C11.7517 18.654 11.8648 18.7918 12.0099 18.8887ZM13.3146 15.8351C13.3629 15.7893 13.3918 15.7268 13.3954 15.6603L13.8147 7.84701C13.8243 7.66843 13.7974 7.48976 13.7356 7.32192C13.6739 7.15407 13.5786 7.00056 13.4556 6.87076C13.3326 6.74095 13.1844 6.63757 13.0201 6.56692C12.8558 6.49627 12.6788 6.45984 12.5 6.45984C12.3211 6.45984 12.1442 6.49627 11.9799 6.56692C11.8156 6.63757 11.6674 6.74095 11.5444 6.87076C11.4213 7.00056 11.326 7.15407 11.2643 7.32192C11.2026 7.48976 11.1757 7.66843 11.1853 7.84701L11.6046 15.6603C11.6081 15.7268 11.6371 15.7893 11.6853 15.8351C11.7336 15.8809 11.7976 15.9064 11.8642 15.9064H13.1358C13.2023 15.9064 13.2663 15.8809 13.3146 15.8351Z" fill="#C00101"/>
</svg>
