<svg width="375" height="57" viewBox="0 0 375 57" fill="none" xmlns="http://www.w3.org/2000/svg">
<rect width="375" height="57" fill="#113EA5"/>
<rect x="15" y="14" width="345" height="29" rx="4" fill="white"/>
<path fill-rule="evenodd" clip-rule="evenodd" d="M36.2735 26.4667C36.2735 29.4858 33.8245 31.9333 30.8035 31.9333C27.7824 31.9333 25.3334 29.4858 25.3334 26.4667C25.3334 23.4475 27.7824 21 30.8035 21C33.8245 21 36.2735 23.4475 36.2735 26.4667ZM26.7009 26.4667C26.7009 28.7311 28.5377 30.5667 30.8035 30.5667C33.0692 30.5667 34.906 28.7311 34.906 26.4667C34.906 24.2024 33.0692 22.3667 30.8035 22.3667C28.5377 22.3667 26.7009 24.2024 26.7009 26.4667Z" fill="#A1A1A1"/>
<path fill-rule="evenodd" clip-rule="evenodd" d="M37.4872 34.454C37.7473 34.7276 38.1801 34.7387 38.4539 34.4788C38.7277 34.2189 38.7388 33.7864 38.4787 33.5127L34.718 29.5562C34.4579 29.2826 34.0251 29.2715 33.7514 29.5314C33.4776 29.7913 33.4664 30.2238 33.7265 30.4975L37.4872 34.454Z" fill="#A1A1A1"/>
<path d="M54.2144 25.6577H54.3023L56.7339 34H57.979L60.8575 23.4312H59.4805L57.3785 32.0225H57.2906L54.9248 23.4312H53.5918L51.2261 32.0225H51.1382L49.0362 23.4312H47.6592L50.5376 34H51.7828L54.2144 25.6577Z" fill="#A1A1A1"/>
<path d="M62.7764 34H64.0362V29.3271C64.0362 27.9941 64.8125 27.1006 66.2261 27.1006C67.42 27.1006 68.0498 27.7964 68.0498 29.1953V34H69.3096V28.8877C69.3096 27.0347 68.2549 25.9653 66.585 25.9653C65.3765 25.9653 64.5489 26.478 64.1534 27.3496H64.0362V22.9697H62.7764V34Z" fill="#A1A1A1"/>
<path d="M74.7588 27.0786C76.0113 27.0786 76.8462 28.0015 76.8755 29.4004H72.5249C72.6202 28.0015 73.4991 27.0786 74.7588 27.0786ZM76.8389 31.9565C76.5093 32.6523 75.8208 33.0259 74.8028 33.0259C73.4624 33.0259 72.5909 32.0371 72.5249 30.4771V30.4185H78.2012V29.9351C78.2012 27.4814 76.9048 25.9653 74.7735 25.9653C72.6055 25.9653 71.2139 27.5767 71.2139 30.0596C71.2139 32.5571 72.5835 34.1392 74.7735 34.1392C76.502 34.1392 77.7325 33.3042 78.0987 31.9565H76.8389Z" fill="#A1A1A1"/>
<path d="M80.1788 34H81.4385V29.1074C81.4385 27.9941 82.3101 27.1885 83.5113 27.1885C83.7603 27.1885 84.2144 27.2324 84.3169 27.2617V26.002C84.1558 25.98 83.8921 25.9653 83.6871 25.9653C82.6397 25.9653 81.7315 26.5073 81.4971 27.2764H81.3799V26.1045H80.1788V34Z" fill="#A1A1A1"/>
<path d="M88.8213 27.0786C90.0738 27.0786 90.9087 28.0015 90.938 29.4004H86.5874C86.6827 28.0015 87.5616 27.0786 88.8213 27.0786ZM90.9014 31.9565C90.5718 32.6523 89.8833 33.0259 88.8653 33.0259C87.5249 33.0259 86.6534 32.0371 86.5874 30.4771V30.4185H92.2637V29.9351C92.2637 27.4814 90.9673 25.9653 88.836 25.9653C86.668 25.9653 85.2764 27.5767 85.2764 30.0596C85.2764 32.5571 86.646 34.1392 88.836 34.1392C90.5645 34.1392 91.795 33.3042 92.1612 31.9565H90.9014Z" fill="#A1A1A1"/>
<path d="M99.002 24.061V26.1045H97.7276V27.1592H99.002V31.9492C99.002 33.458 99.6538 34.0586 101.28 34.0586C101.529 34.0586 101.771 34.0293 102.02 33.9854V32.9233C101.785 32.9453 101.661 32.9526 101.434 32.9526C100.613 32.9526 100.262 32.5571 100.262 31.627V27.1592H102.02V26.1045H100.262V24.061H99.002Z" fill="#A1A1A1"/>
<path d="M107.051 34.1392C109.3 34.1392 110.691 32.5864 110.691 30.0522C110.691 27.5107 109.3 25.9653 107.051 25.9653C104.803 25.9653 103.411 27.5107 103.411 30.0522C103.411 32.5864 104.803 34.1392 107.051 34.1392ZM107.051 33.0039C105.557 33.0039 104.715 31.9199 104.715 30.0522C104.715 28.1772 105.557 27.1006 107.051 27.1006C108.545 27.1006 109.388 28.1772 109.388 30.0522C109.388 31.9199 108.545 33.0039 107.051 33.0039Z" fill="#A1A1A1"/>
<path d="M113.563 34.0732C114.09 34.0732 114.515 33.6411 114.515 33.1211C114.515 32.5938 114.09 32.1689 113.563 32.1689C113.043 32.1689 112.61 32.5938 112.61 33.1211C112.61 33.6411 113.043 34.0732 113.563 34.0732Z" fill="#A1A1A1"/>
<path d="M118.016 34.0732C118.543 34.0732 118.968 33.6411 118.968 33.1211C118.968 32.5938 118.543 32.1689 118.016 32.1689C117.496 32.1689 117.064 32.5938 117.064 33.1211C117.064 33.6411 117.496 34.0732 118.016 34.0732Z" fill="#A1A1A1"/>
<path d="M122.469 34.0732C122.996 34.0732 123.421 33.6411 123.421 33.1211C123.421 32.5938 122.996 32.1689 122.469 32.1689C121.949 32.1689 121.517 32.5938 121.517 33.1211C121.517 33.6411 121.949 34.0732 122.469 34.0732Z" fill="#A1A1A1"/>
</svg>
